<svg width="20" height="21" viewBox="0 0 20 21" fill="none" xmlns="http://www.w3.org/2000/svg">
<path d="M0.319874 11.1616L8.62109 3.74616C8.68481 3.68962 8.76611 3.65796 8.85181 3.65796H10.7964C10.959 3.65796 11.0337 3.86602 10.9106 3.97457L3.21587 10.8496H16.0742C16.1709 10.8496 16.25 10.931 16.25 11.0305V12.3874C16.25 12.4869 16.1709 12.5683 16.0742 12.5683H3.218L10.9128 19.4433C11.0359 19.5542 10.9612 19.76 10.7986 19.76H8.78809C8.74634 19.76 8.70459 19.7441 8.67382 19.7147L0.319874 12.2563C0.243749 12.1882 0.182748 12.1041 0.140998 12.0096C0.099123 11.9152 0.0774988 11.8127 0.0774988 11.7089C0.0774988 11.6052 0.099123 11.5027 0.140998 11.4083C0.182748 11.3139 0.243749 11.2297 0.319874 11.1616Z" fill="white" fill-opacity="0.89"/>
</svg>
