<svg width="16" height="19" viewBox="0 0 16 19" fill="none" xmlns="http://www.w3.org/2000/svg">
<path d="M15.7441 10.1285L9.10313 3.08379C9.05215 3.03008 8.98711 3 8.91855 3H7.36289C7.23281 3 7.17305 3.19766 7.27148 3.30078L13.4273 9.83203H3.14062C3.06328 9.83203 3 9.90938 3 10.0039V11.293C3 11.3875 3.06328 11.4648 3.14062 11.4648H13.4256L7.26973 17.9961C7.17129 18.1014 7.23105 18.2969 7.36113 18.2969H8.96953C9.00293 18.2969 9.03633 18.2818 9.06094 18.2539L15.7441 11.1684C15.805 11.1037 15.8538 11.0238 15.8872 10.9341C15.9207 10.8444 15.938 10.747 15.938 10.6484C15.938 10.5499 15.9207 10.4525 15.8872 10.3628C15.8538 10.2731 15.805 10.1932 15.7441 10.1285Z" fill="white" fill-opacity="0.89"/>
</svg>
