<svg width="22" height="22" viewBox="0 0 22 22" fill="none" xmlns="http://www.w3.org/2000/svg">
<path d="M19.25 3.66666H1.83334V5.49999H3.94168L6.94834 13.75C7.13746 14.2849 7.48741 14.7482 7.9502 15.0765C8.41299 15.4047 8.96598 15.5817 9.53334 15.5833H17.4167V13.75H9.53334C9.34496 13.7499 9.16117 13.6918 9.00699 13.5835C8.85281 13.4753 8.73573 13.3222 8.67168 13.145L8.25001 11.9167H16.7567C17.1545 11.9161 17.5414 11.7861 17.8589 11.5463C18.1764 11.3066 18.4073 10.97 18.5167 10.5875L20.1667 4.83082C20.2039 4.71045 20.216 4.58369 20.2021 4.45845C20.1881 4.33321 20.1485 4.21219 20.0857 4.10294C20.0229 3.9937 19.9383 3.89857 19.8371 3.8235C19.7359 3.74844 19.6203 3.69504 19.4975 3.66666C19.4156 3.65331 19.332 3.65331 19.25 3.66666ZM16.7292 10.0833H7.56251L5.89418 5.49999H18.0308L16.7292 10.0833Z" fill="#2E3F62"/>
<path d="M9.625 19.25C10.3844 19.25 11 18.6344 11 17.875C11 17.1156 10.3844 16.5 9.625 16.5C8.86561 16.5 8.25 17.1156 8.25 17.875C8.25 18.6344 8.86561 19.25 9.625 19.25Z" fill="#2E3F62"/>
<path d="M15.125 19.25C15.8844 19.25 16.5 18.6344 16.5 17.875C16.5 17.1156 15.8844 16.5 15.125 16.5C14.3656 16.5 13.75 17.1156 13.75 17.875C13.75 18.6344 14.3656 19.25 15.125 19.25Z" fill="#2E3F62"/>
</svg>
