<svg width="18" height="18" viewBox="0 0 18 18" fill="none" xmlns="http://www.w3.org/2000/svg">
<path d="M9.00001 5.39474C7.00489 5.39474 5.39473 7.00489 5.39473 9.00001C5.39473 10.9951 7.00489 12.6053 9.00001 12.6053C10.9951 12.6053 12.6053 10.9951 12.6053 9.00001C12.6053 7.00489 10.9951 5.39474 9.00001 5.39474ZM9.00001 11.3432C7.70977 11.3432 6.65684 10.2902 6.65684 9.00001C6.65684 7.70978 7.70977 6.65685 9.00001 6.65685C10.2902 6.65685 11.3432 7.70978 11.3432 9.00001C11.3432 10.2902 10.2902 11.3432 9.00001 11.3432ZM12.7529 4.40685C12.2871 4.40685 11.9109 4.78302 11.9109 5.24884C11.9109 5.71466 12.2871 6.09083 12.7529 6.09083C13.2188 6.09083 13.5949 5.71642 13.5949 5.24884C13.5951 5.13823 13.5734 5.02868 13.5311 4.92646C13.4889 4.82424 13.4268 4.73136 13.3486 4.65315C13.2704 4.57494 13.1775 4.51292 13.0753 4.47066C12.9731 4.42839 12.8635 4.40671 12.7529 4.40685ZM16.0277 9.00001C16.0277 8.0297 16.0365 7.06817 15.982 6.09962C15.9275 4.97462 15.6709 3.97618 14.8482 3.15353C14.0238 2.32911 13.0272 2.07423 11.9022 2.01974C10.9318 1.96524 9.97032 1.97403 9.00176 1.97403C8.03145 1.97403 7.06993 1.96524 6.10137 2.01974C4.97637 2.07423 3.97794 2.33087 3.15528 3.15353C2.33087 3.97794 2.07598 4.97462 2.02149 6.09962C1.967 7.06993 1.97579 8.03146 1.97579 9.00001C1.97579 9.96856 1.967 10.9318 2.02149 11.9004C2.07598 13.0254 2.33262 14.0238 3.15528 14.8465C3.97969 15.6709 4.97637 15.9258 6.10137 15.9803C7.07169 16.0348 8.03321 16.026 9.00176 16.026C9.97208 16.026 10.9336 16.0348 11.9022 15.9803C13.0272 15.9258 14.0256 15.6692 14.8482 14.8465C15.6727 14.0221 15.9275 13.0254 15.982 11.9004C16.0383 10.9318 16.0277 9.97032 16.0277 9.00001ZM14.4809 13.1449C14.3525 13.4649 14.1979 13.7039 13.95 13.95C13.7022 14.1979 13.4649 14.3525 13.1449 14.4809C12.2203 14.8483 10.0248 14.7656 9.00001 14.7656C7.9752 14.7656 5.77794 14.8483 4.85333 14.4826C4.53341 14.3543 4.29434 14.1996 4.04825 13.9518C3.8004 13.7039 3.64571 13.4666 3.51739 13.1467C3.15177 12.2203 3.23438 10.0248 3.23438 9.00001C3.23438 7.97521 3.15177 5.77794 3.51739 4.85333C3.64571 4.53341 3.8004 4.29435 4.04825 4.04825C4.2961 3.80216 4.53341 3.64571 4.85333 3.51739C5.77794 3.15177 7.9752 3.23439 9.00001 3.23439C10.0248 3.23439 12.2221 3.15177 13.1467 3.51739C13.4666 3.64571 13.7057 3.8004 13.9518 4.04825C14.1996 4.2961 14.3543 4.53341 14.4826 4.85333C14.8483 5.77794 14.7656 7.97521 14.7656 9.00001C14.7656 10.0248 14.8482 12.2203 14.4809 13.1449Z" fill="white" fill-opacity="0.89"/>
</svg>
