<svg width="18" height="18" viewBox="0 0 18 18" fill="none" xmlns="http://www.w3.org/2000/svg">
<path d="M16.3125 4.47012C15.7746 4.70216 15.1893 4.86915 14.5863 4.93419C15.2123 4.5623 15.6811 3.97477 15.9047 3.28184C15.3173 3.63128 14.6738 3.87631 14.0027 4.00606C13.7223 3.70623 13.3831 3.46736 13.0062 3.30436C12.6294 3.14135 12.2231 3.05769 11.8125 3.0586C10.1514 3.0586 8.81543 4.40509 8.81543 6.05743C8.81543 6.28946 8.84356 6.52149 8.88926 6.74473C6.40196 6.61466 4.1836 5.42637 2.70879 3.60704C2.44007 4.06603 2.29925 4.58865 2.30098 5.12051C2.30098 6.16114 2.83008 7.07872 3.63692 7.61837C3.16144 7.59964 2.69709 7.46895 2.28164 7.23692V7.27384C2.28164 8.73106 3.31172 9.93868 4.68457 10.2164C4.42681 10.2834 4.16164 10.3176 3.89532 10.3184C3.7002 10.3184 3.51563 10.299 3.3293 10.2727C3.70899 11.4609 4.81465 12.324 6.13125 12.3522C5.10117 13.159 3.81094 13.6336 2.40996 13.6336C2.1586 13.6336 1.92657 13.6248 1.68575 13.5967C3.01465 14.4492 4.59141 14.9414 6.28946 14.9414C11.802 14.9414 14.8184 10.3746 14.8184 6.41075C14.8184 6.28067 14.8184 6.15059 14.8096 6.02051C15.3932 5.59337 15.9047 5.06427 16.3125 4.47012Z" fill="white" fill-opacity="0.89"/>
</svg>
