<svg width="22" height="22" viewBox="0 0 22 22" fill="none" xmlns="http://www.w3.org/2000/svg">
<path d="M19.2502 3.66675H1.8335V5.50008H3.94183L6.9485 13.7501C7.13762 14.285 7.48756 14.7483 7.95035 15.0766C8.41315 15.4048 8.96613 15.5818 9.5335 15.5834H17.4168V13.7501H9.5335C9.34511 13.75 9.16132 13.6919 9.00714 13.5836C8.85296 13.4754 8.73588 13.3222 8.67183 13.1451L8.25016 11.9167H16.7568C17.1547 11.9162 17.5416 11.7862 17.8591 11.5464C18.1765 11.3066 18.4074 10.9701 18.5168 10.5876L20.1668 4.83091C20.2041 4.71054 20.2161 4.58378 20.2022 4.45854C20.1883 4.3333 20.1487 4.21228 20.0859 4.10304C20.0231 3.99379 19.9384 3.89866 19.8372 3.8236C19.736 3.74853 19.6204 3.69513 19.4977 3.66675C19.4157 3.6534 19.3321 3.6534 19.2502 3.66675ZM16.7293 10.0834H7.56266L5.89433 5.50008H18.031L16.7293 10.0834Z" fill="white"/>
<path d="M9.625 19.25C10.3844 19.25 11 18.6344 11 17.875C11 17.1156 10.3844 16.5 9.625 16.5C8.86561 16.5 8.25 17.1156 8.25 17.875C8.25 18.6344 8.86561 19.25 9.625 19.25Z" fill="white"/>
<path d="M15.125 19.25C15.8844 19.25 16.5 18.6344 16.5 17.875C16.5 17.1156 15.8844 16.5 15.125 16.5C14.3656 16.5 13.75 17.1156 13.75 17.875C13.75 18.6344 14.3656 19.25 15.125 19.25Z" fill="white"/>
</svg>
